{
  "title": "Hand Of God Season 1 Complete",
  "uid": 12373010,
  "size": 5193380283,
  "categoryP": "video",
  "categoryS": "tv_shows",
  "magnet": "?xt=urn:btih:10214ff34a06629b6d84d08ac5a9743e0a8a31bf&amp;dn=Hand+Of+God+Season+1+Complete&amp;tr=udp%3A%2F%2Ftracker.openbittorrent.com%3A80&amp;tr=udp%3A%2F%2Fopen.demonii.com%3A1337&amp;tr=udp%3A%2F%2Ftracker.coppersurfer.tk%3A6969&amp;tr=udp%3A%2F%2Fexodus.desync.com%3A6969",
  "seeders": 110,
  "leechers": 53,
  "uploader": "-nelly-",
  "files": 10,
  "time": 1441673587,
  "description": "Regards and Respect to the source\n\ntorrenting.com\n &lt;a href=&quot;\nhttp://www.imdb.com/title/tt3973768/?ref_=nv_sr_1&quot; rel=&quot;nofollow&quot; target=&quot;_NEW&quot;&gt;\nhttp://www.imdb.com/title/tt3973768/?ref_=nv_sr_1&lt;/a&gt;\n\n\nINFO:\n=====\n\nGeneral\nComplete name                            : Hand.Of.God.S01E01.WEBRip.x264-RED.mp4\nFormat                                   : MPEG-4\nFormat profile                           : Base Media\nCodec ID                                 : isom\nFile size                                : 400 MiB\nDuration                                 : 1h 6mn\nOverall bit rate mode                    : Variable\nOverall bit rate                         : 839 Kbps\nEncoded date                             : UTC 2014-08-29 01:40:42\nTagged date                              : UTC 2014-08-29 01:40:42\n\nVideo\nID                                       : 1\nFormat                                   : AVC\nFormat/Info                              : Advanced Video Codec\nFormat profile                           : &lt;a class=&quot;__cf_email__&quot; href=&quot;/cdn-cgi/l/email-protection&quot; data-cfemail=&quot;d29abbb5ba929ee1fce3&quot;&gt;[email&amp;#160;protected]&lt;/a&gt;&lt;script data-cfhash='f9e31' type=&quot;text/javascript&quot;&gt;\n/* &lt;![CDATA[ */!function(){try{var t=&quot;currentScript&quot;in document?document.currentScript:function(){for(var t=document.getElementsByTagName(&quot;script&quot;),e=t.length;e--;)if(t[e].getAttribute(&quot;data-cfhash&quot;))return t[e]}();if(t&amp;&amp;t.previousSibling){var e,r,n,i,c=t.previousSibling,a=c.getAttribute(&quot;data-cfemail&quot;);if(a){for(e=&quot;&quot;,r=parseInt(a.substr(0,2),16),n=2;a.length-n;n+=2)i=parseInt(a.substr(n,2),16)^r,e+=String.fromCharCode(i);e=document.createTextNode(e),c.parentNode.replaceChild(e,c)}t.parentNode.removeChild(t);}}catch(u){}}()/* ]]&gt; */&lt;/script&gt;\nFormat settings, CABAC                   : Yes\nFormat settings, ReFrames                : 5 frames\nCodec ID                                 : avc1\nCodec ID/Info                            : Advanced Video Coding\nDuration                                 : 1h 6mn\nBit rate                                 : 707 Kbps\nMaximum bit rate                         : 4 759 Kbps\nWidth                                    : 720 pixels\nHeight                                   : 404 pixels\nDisplay aspect ratio                     : 16:9\nOriginal display aspect ratio            : 16:9\nFrame rate mode                          : Constant\nFrame rate                               : 23.976 fps\nColor space                              : YUV\nChroma subsampling                       : 4:2:0\nBit depth                                : 8 bits\nScan type                                : Progressive\nBits/(Pixel*Frame)                       : 0.101\nStream size                              : 337 MiB (84%)\nWriting library                          : x264 core 142 r2453kMod ea0ca51\nTagged date                              : UTC 2014-08-29 01:41:29\nMatrix coefficients                      : BT.709\nColor range                              : Limited\n\nAudio\nID                                       : 2\nFormat                                   : AAC\nFormat/Info                              : Advanced Audio Codec\nFormat profile                           : LC\nCodec ID                                 : 40\nDuration                                 : 1h 6mn\nBit rate mode                            : Variable\nBit rate                                 : 128 Kbps\nMaximum bit rate                         : 143 Kbps\nChannel(s)                               : 2 channels\nChannel positions                        : Front: L R\nSampling rate                            : 48.0 KHz\nCompression mode                         : Lossy\nHand Of God Season 1 Complete - -nelly-\n\nRegards and Respect to the source\n\ntorrenting.com\n &lt;a href=&quot;\nhttp://www.imdb.com/title/tt3973768/?ref_=nv_sr_1&quot; rel=&quot;nofollow&quot; target=&quot;_NEW&quot;&gt;\nhttp://www.imdb.com/title/tt3973768/?ref_=nv_sr_1&lt;/a&gt;\n\n\nStream size                              : 61.0 MiB (15%)\nEncoded date                             : UTC 2014-08-29 01:11:54\nTagged date                              : UTC 2014-08-29 01:41:29\n\n\n===================================================================================\n\n\n-nelly- home page at The Pirate Bay link below:\n\n                               &lt;a href=&quot;\nhttps://thepiratebay.gd/user/-nelly-/&quot; rel=&quot;nofollow&quot; target=&quot;_NEW&quot;&gt;\nhttps://thepiratebay.gd/user/-nelly-/&lt;/a&gt;\n\n\n2010kaiser home page at The Pirate Bay link below:\n\n                            &lt;a href=&quot;\nhttps://thepiratebay.gd/user/2010kaiser/&quot; rel=&quot;nofollow&quot; target=&quot;_NEW&quot;&gt;\nhttps://thepiratebay.gd/user/2010kaiser/&lt;/a&gt;\n\n\nPlease take the time to visit the site below and support a fellow pirate:\n\n           &lt;a href=&quot;\nhttps://www.justgiving.com/Agricola-TPB&quot; rel=&quot;nofollow&quot; target=&quot;_NEW&quot;&gt;\nhttps://www.justgiving.com/Agricola-TPB&lt;/a&gt;\n\n\n\n-nelly- / 2010kaiser / LowOrbit / Fat_Elvis / PitchFork / HARBINGER",
  "parsed": {
    "xt": "urn:btih:10214ff34a06629b6d84d08ac5a9743e0a8a31bf",
    "dn": "Hand Of God Season 1 Complete",
    "tr": [
      "udp://exodus.desync.com:6969",
      "udp://open.demonii.com:1337",
      "udp://tracker.coppersurfer.tk:6969",
      "udp://tracker.openbittorrent.com:80"
    ],
    "infoHash": "10214ff34a06629b6d84d08ac5a9743e0a8a31bf",
    "infoHashBuffer": {
      "type": "Buffer",
      "data": [
        16,
        33,
        79,
        243,
        74,
        6,
        98,
        155,
        109,
        132,
        208,
        138,
        197,
        169,
        116,
        62,
        10,
        138,
        49,
        191
      ]
    },
    "name": "Hand Of God Season 1 Complete",
    "announce": [
      "udp://exodus.desync.com:6969",
      "udp://open.demonii.com:1337",
      "udp://tracker.coppersurfer.tk:6969",
      "udp://tracker.openbittorrent.com:80"
    ],
    "urlList": []
  },
  "previous": 52,
  "peers": 0,
  "last_updated": "2016-12-26T16:28:19.978Z"
}